<mxfile host="app.diagrams.net" modified="2023-04-13T21:11:38.983Z" agent="Mozilla/5.0 (X11; Linux x86_64) AppleWebKit/537.36 (KHTML, like Gecko) Chrome/111.0.0.0 Safari/537.36" etag="2PuZ3jcuz-H9sZcOEy5W" version="21.1.5" type="github">
  <diagram id="C5RBs43oDa-KdzZeNtuy" name="Page-1">
    <mxGraphModel dx="1434" dy="866" grid="1" gridSize="10" guides="1" tooltips="1" connect="1" arrows="1" fold="1" page="1" pageScale="1" pageWidth="827" pageHeight="1169" math="0" shadow="0">
      <root>
        <mxCell id="WIyWlLk6GJQsqaUBKTNV-0" />
        <mxCell id="WIyWlLk6GJQsqaUBKTNV-1" parent="WIyWlLk6GJQsqaUBKTNV-0" />
        <mxCell id="OQkiHe_5IFdhKGG0qFA8-10" value="Design" style="swimlane;fontStyle=0;align=center;verticalAlign=top;childLayout=stackLayout;horizontal=1;startSize=26;horizontalStack=0;resizeParent=1;resizeLast=0;collapsible=1;marginBottom=0;rounded=0;shadow=0;strokeWidth=1;" parent="WIyWlLk6GJQsqaUBKTNV-1" vertex="1">
          <mxGeometry x="470" y="110" width="160" height="80" as="geometry">
            <mxRectangle x="340" y="380" width="170" height="26" as="alternateBounds" />
          </mxGeometry>
        </mxCell>
        <mxCell id="OQkiHe_5IFdhKGG0qFA8-11" value="name" style="text;align=left;verticalAlign=top;spacingLeft=4;spacingRight=4;overflow=hidden;rotatable=0;points=[[0,0.5],[1,0.5]];portConstraint=eastwest;" parent="OQkiHe_5IFdhKGG0qFA8-10" vertex="1">
          <mxGeometry y="26" width="160" height="22" as="geometry" />
        </mxCell>
        <mxCell id="jyiX5HnJnZasH04H_NFC-26" value="path" style="text;align=left;verticalAlign=top;spacingLeft=4;spacingRight=4;overflow=hidden;rotatable=0;points=[[0,0.5],[1,0.5]];portConstraint=eastwest;" parent="OQkiHe_5IFdhKGG0qFA8-10" vertex="1">
          <mxGeometry y="48" width="160" height="22" as="geometry" />
        </mxCell>
        <mxCell id="OQkiHe_5IFdhKGG0qFA8-12" value="" style="line;html=1;strokeWidth=1;align=left;verticalAlign=middle;spacingTop=-1;spacingLeft=3;spacingRight=3;rotatable=0;labelPosition=right;points=[];portConstraint=eastwest;" parent="OQkiHe_5IFdhKGG0qFA8-10" vertex="1">
          <mxGeometry y="70" width="160" height="8" as="geometry" />
        </mxCell>
        <mxCell id="OQkiHe_5IFdhKGG0qFA8-13" value="Template" style="swimlane;fontStyle=0;align=center;verticalAlign=top;childLayout=stackLayout;horizontal=1;startSize=26;horizontalStack=0;resizeParent=1;resizeLast=0;collapsible=1;marginBottom=0;rounded=0;shadow=0;strokeWidth=1;" parent="WIyWlLk6GJQsqaUBKTNV-1" vertex="1">
          <mxGeometry x="230" y="460" width="160" height="70" as="geometry">
            <mxRectangle x="340" y="380" width="170" height="26" as="alternateBounds" />
          </mxGeometry>
        </mxCell>
        <mxCell id="OQkiHe_5IFdhKGG0qFA8-14" value="path" style="text;align=left;verticalAlign=top;spacingLeft=4;spacingRight=4;overflow=hidden;rotatable=0;points=[[0,0.5],[1,0.5]];portConstraint=eastwest;" parent="OQkiHe_5IFdhKGG0qFA8-13" vertex="1">
          <mxGeometry y="26" width="160" height="22" as="geometry" />
        </mxCell>
        <mxCell id="OQkiHe_5IFdhKGG0qFA8-15" value="" style="line;html=1;strokeWidth=1;align=left;verticalAlign=middle;spacingTop=-1;spacingLeft=3;spacingRight=3;rotatable=0;labelPosition=right;points=[];portConstraint=eastwest;" parent="OQkiHe_5IFdhKGG0qFA8-13" vertex="1">
          <mxGeometry y="48" width="160" height="8" as="geometry" />
        </mxCell>
        <mxCell id="OQkiHe_5IFdhKGG0qFA8-16" value="VideoSettings" style="swimlane;fontStyle=0;align=center;verticalAlign=top;childLayout=stackLayout;horizontal=1;startSize=26;horizontalStack=0;resizeParent=1;resizeLast=0;collapsible=1;marginBottom=0;rounded=0;shadow=0;strokeWidth=1;" parent="WIyWlLk6GJQsqaUBKTNV-1" vertex="1">
          <mxGeometry x="740" y="413" width="160" height="190" as="geometry">
            <mxRectangle x="340" y="380" width="170" height="26" as="alternateBounds" />
          </mxGeometry>
        </mxCell>
        <mxCell id="OQkiHe_5IFdhKGG0qFA8-17" value="movement" style="text;align=left;verticalAlign=top;spacingLeft=4;spacingRight=4;overflow=hidden;rotatable=0;points=[[0,0.5],[1,0.5]];portConstraint=eastwest;" parent="OQkiHe_5IFdhKGG0qFA8-16" vertex="1">
          <mxGeometry y="26" width="160" height="26" as="geometry" />
        </mxCell>
        <mxCell id="jyiX5HnJnZasH04H_NFC-55" value="start_zoom" style="text;align=left;verticalAlign=top;spacingLeft=4;spacingRight=4;overflow=hidden;rotatable=0;points=[[0,0.5],[1,0.5]];portConstraint=eastwest;" parent="OQkiHe_5IFdhKGG0qFA8-16" vertex="1">
          <mxGeometry y="52" width="160" height="26" as="geometry" />
        </mxCell>
        <mxCell id="jyiX5HnJnZasH04H_NFC-56" value="step" style="text;align=left;verticalAlign=top;spacingLeft=4;spacingRight=4;overflow=hidden;rotatable=0;points=[[0,0.5],[1,0.5]];portConstraint=eastwest;" parent="OQkiHe_5IFdhKGG0qFA8-16" vertex="1">
          <mxGeometry y="78" width="160" height="26" as="geometry" />
        </mxCell>
        <mxCell id="jyiX5HnJnZasH04H_NFC-58" value="fps" style="text;align=left;verticalAlign=top;spacingLeft=4;spacingRight=4;overflow=hidden;rotatable=0;points=[[0,0.5],[1,0.5]];portConstraint=eastwest;" parent="OQkiHe_5IFdhKGG0qFA8-16" vertex="1">
          <mxGeometry y="104" width="160" height="26" as="geometry" />
        </mxCell>
        <mxCell id="MuFP3AbdZs368-yH0EZ4-0" value="frames" style="text;align=left;verticalAlign=top;spacingLeft=4;spacingRight=4;overflow=hidden;rotatable=0;points=[[0,0.5],[1,0.5]];portConstraint=eastwest;" vertex="1" parent="OQkiHe_5IFdhKGG0qFA8-16">
          <mxGeometry y="130" width="160" height="26" as="geometry" />
        </mxCell>
        <mxCell id="jyiX5HnJnZasH04H_NFC-57" value="format" style="text;align=left;verticalAlign=top;spacingLeft=4;spacingRight=4;overflow=hidden;rotatable=0;points=[[0,0.5],[1,0.5]];portConstraint=eastwest;" parent="OQkiHe_5IFdhKGG0qFA8-16" vertex="1">
          <mxGeometry y="156" width="160" height="26" as="geometry" />
        </mxCell>
        <mxCell id="OQkiHe_5IFdhKGG0qFA8-18" value="" style="line;html=1;strokeWidth=1;align=left;verticalAlign=middle;spacingTop=-1;spacingLeft=3;spacingRight=3;rotatable=0;labelPosition=right;points=[];portConstraint=eastwest;" parent="OQkiHe_5IFdhKGG0qFA8-16" vertex="1">
          <mxGeometry y="182" width="160" height="8" as="geometry" />
        </mxCell>
        <mxCell id="OQkiHe_5IFdhKGG0qFA8-19" value="Watermark" style="swimlane;fontStyle=0;align=center;verticalAlign=top;childLayout=stackLayout;horizontal=1;startSize=26;horizontalStack=0;resizeParent=1;resizeLast=0;collapsible=1;marginBottom=0;rounded=0;shadow=0;strokeWidth=1;" parent="WIyWlLk6GJQsqaUBKTNV-1" vertex="1">
          <mxGeometry x="470" y="560" width="160" height="190" as="geometry">
            <mxRectangle x="340" y="380" width="170" height="26" as="alternateBounds" />
          </mxGeometry>
        </mxCell>
        <mxCell id="OQkiHe_5IFdhKGG0qFA8-20" value="font_path" style="text;align=left;verticalAlign=top;spacingLeft=4;spacingRight=4;overflow=hidden;rotatable=0;points=[[0,0.5],[1,0.5]];portConstraint=eastwest;" parent="OQkiHe_5IFdhKGG0qFA8-19" vertex="1">
          <mxGeometry y="26" width="160" height="26" as="geometry" />
        </mxCell>
        <mxCell id="jyiX5HnJnZasH04H_NFC-37" value="text" style="text;align=left;verticalAlign=top;spacingLeft=4;spacingRight=4;overflow=hidden;rotatable=0;points=[[0,0.5],[1,0.5]];portConstraint=eastwest;" parent="OQkiHe_5IFdhKGG0qFA8-19" vertex="1">
          <mxGeometry y="52" width="160" height="26" as="geometry" />
        </mxCell>
        <mxCell id="jyiX5HnJnZasH04H_NFC-38" value="color" style="text;align=left;verticalAlign=top;spacingLeft=4;spacingRight=4;overflow=hidden;rotatable=0;points=[[0,0.5],[1,0.5]];portConstraint=eastwest;" parent="OQkiHe_5IFdhKGG0qFA8-19" vertex="1">
          <mxGeometry y="78" width="160" height="26" as="geometry" />
        </mxCell>
        <mxCell id="jyiX5HnJnZasH04H_NFC-39" value="position" style="text;align=left;verticalAlign=top;spacingLeft=4;spacingRight=4;overflow=hidden;rotatable=0;points=[[0,0.5],[1,0.5]];portConstraint=eastwest;" parent="OQkiHe_5IFdhKGG0qFA8-19" vertex="1">
          <mxGeometry y="104" width="160" height="26" as="geometry" />
        </mxCell>
        <mxCell id="jyiX5HnJnZasH04H_NFC-40" value="width" style="text;align=left;verticalAlign=top;spacingLeft=4;spacingRight=4;overflow=hidden;rotatable=0;points=[[0,0.5],[1,0.5]];portConstraint=eastwest;" parent="OQkiHe_5IFdhKGG0qFA8-19" vertex="1">
          <mxGeometry y="130" width="160" height="26" as="geometry" />
        </mxCell>
        <mxCell id="jyiX5HnJnZasH04H_NFC-36" value="font_path" style="text;align=left;verticalAlign=top;spacingLeft=4;spacingRight=4;overflow=hidden;rotatable=0;points=[[0,0.5],[1,0.5]];portConstraint=eastwest;" parent="OQkiHe_5IFdhKGG0qFA8-19" vertex="1">
          <mxGeometry y="156" width="160" height="26" as="geometry" />
        </mxCell>
        <mxCell id="OQkiHe_5IFdhKGG0qFA8-21" value="" style="line;html=1;strokeWidth=1;align=left;verticalAlign=middle;spacingTop=-1;spacingLeft=3;spacingRight=3;rotatable=0;labelPosition=right;points=[];portConstraint=eastwest;" parent="OQkiHe_5IFdhKGG0qFA8-19" vertex="1">
          <mxGeometry y="182" width="160" height="8" as="geometry" />
        </mxCell>
        <mxCell id="jyiX5HnJnZasH04H_NFC-0" value="Product" style="swimlane;fontStyle=0;align=center;verticalAlign=top;childLayout=stackLayout;horizontal=1;startSize=26;horizontalStack=0;resizeParent=1;resizeLast=0;collapsible=1;marginBottom=0;rounded=0;shadow=0;strokeWidth=1;" parent="WIyWlLk6GJQsqaUBKTNV-1" vertex="1">
          <mxGeometry x="200" y="140" width="160" height="78" as="geometry">
            <mxRectangle x="340" y="380" width="170" height="26" as="alternateBounds" />
          </mxGeometry>
        </mxCell>
        <mxCell id="jyiX5HnJnZasH04H_NFC-1" value="design_path" style="text;align=left;verticalAlign=top;spacingLeft=4;spacingRight=4;overflow=hidden;rotatable=0;points=[[0,0.5],[1,0.5]];portConstraint=eastwest;" parent="jyiX5HnJnZasH04H_NFC-0" vertex="1">
          <mxGeometry y="26" width="160" height="22" as="geometry" />
        </mxCell>
        <mxCell id="jyiX5HnJnZasH04H_NFC-28" value="name" style="text;align=left;verticalAlign=top;spacingLeft=4;spacingRight=4;overflow=hidden;rotatable=0;points=[[0,0.5],[1,0.5]];portConstraint=eastwest;" parent="jyiX5HnJnZasH04H_NFC-0" vertex="1">
          <mxGeometry y="48" width="160" height="22" as="geometry" />
        </mxCell>
        <mxCell id="jyiX5HnJnZasH04H_NFC-2" value="" style="line;html=1;strokeWidth=1;align=left;verticalAlign=middle;spacingTop=-1;spacingLeft=3;spacingRight=3;rotatable=0;labelPosition=right;points=[];portConstraint=eastwest;" parent="jyiX5HnJnZasH04H_NFC-0" vertex="1">
          <mxGeometry y="70" width="160" height="8" as="geometry" />
        </mxCell>
        <mxCell id="jyiX5HnJnZasH04H_NFC-3" value="ProductType" style="swimlane;fontStyle=0;align=center;verticalAlign=top;childLayout=stackLayout;horizontal=1;startSize=26;horizontalStack=0;resizeParent=1;resizeLast=0;collapsible=1;marginBottom=0;rounded=0;shadow=0;strokeWidth=1;" parent="WIyWlLk6GJQsqaUBKTNV-1" vertex="1">
          <mxGeometry x="450" y="300" width="160" height="60" as="geometry">
            <mxRectangle x="340" y="380" width="170" height="26" as="alternateBounds" />
          </mxGeometry>
        </mxCell>
        <mxCell id="jyiX5HnJnZasH04H_NFC-4" value="designs_count&#xa;" style="text;align=left;verticalAlign=top;spacingLeft=4;spacingRight=4;overflow=hidden;rotatable=0;points=[[0,0.5],[1,0.5]];portConstraint=eastwest;" parent="jyiX5HnJnZasH04H_NFC-3" vertex="1">
          <mxGeometry y="26" width="160" height="18" as="geometry" />
        </mxCell>
        <mxCell id="jyiX5HnJnZasH04H_NFC-5" value="" style="line;html=1;strokeWidth=1;align=left;verticalAlign=middle;spacingTop=-1;spacingLeft=3;spacingRight=3;rotatable=0;labelPosition=right;points=[];portConstraint=eastwest;" parent="jyiX5HnJnZasH04H_NFC-3" vertex="1">
          <mxGeometry y="44" width="160" height="8" as="geometry" />
        </mxCell>
        <mxCell id="jyiX5HnJnZasH04H_NFC-6" value="Format" style="swimlane;fontStyle=0;align=center;verticalAlign=top;childLayout=stackLayout;horizontal=1;startSize=26;horizontalStack=0;resizeParent=1;resizeLast=0;collapsible=1;marginBottom=0;rounded=0;shadow=0;strokeWidth=1;" parent="WIyWlLk6GJQsqaUBKTNV-1" vertex="1">
          <mxGeometry x="130" y="320" width="160" height="78" as="geometry">
            <mxRectangle x="340" y="380" width="170" height="26" as="alternateBounds" />
          </mxGeometry>
        </mxCell>
        <mxCell id="jyiX5HnJnZasH04H_NFC-7" value="ppi" style="text;align=left;verticalAlign=top;spacingLeft=4;spacingRight=4;overflow=hidden;rotatable=0;points=[[0,0.5],[1,0.5]];portConstraint=eastwest;" parent="jyiX5HnJnZasH04H_NFC-6" vertex="1">
          <mxGeometry y="26" width="160" height="22" as="geometry" />
        </mxCell>
        <mxCell id="jyiX5HnJnZasH04H_NFC-35" value="inches" style="text;align=left;verticalAlign=top;spacingLeft=4;spacingRight=4;overflow=hidden;rotatable=0;points=[[0,0.5],[1,0.5]];portConstraint=eastwest;" parent="jyiX5HnJnZasH04H_NFC-6" vertex="1">
          <mxGeometry y="48" width="160" height="22" as="geometry" />
        </mxCell>
        <mxCell id="jyiX5HnJnZasH04H_NFC-8" value="" style="line;html=1;strokeWidth=1;align=left;verticalAlign=middle;spacingTop=-1;spacingLeft=3;spacingRight=3;rotatable=0;labelPosition=right;points=[];portConstraint=eastwest;" parent="jyiX5HnJnZasH04H_NFC-6" vertex="1">
          <mxGeometry y="70" width="160" height="8" as="geometry" />
        </mxCell>
        <mxCell id="jyiX5HnJnZasH04H_NFC-9" value="" style="endArrow=classic;html=1;rounded=0;" parent="WIyWlLk6GJQsqaUBKTNV-1" source="jyiX5HnJnZasH04H_NFC-0" target="jyiX5HnJnZasH04H_NFC-3" edge="1">
          <mxGeometry width="50" height="50" relative="1" as="geometry">
            <mxPoint x="30" y="270" as="sourcePoint" />
            <mxPoint x="80" y="220" as="targetPoint" />
          </mxGeometry>
        </mxCell>
        <mxCell id="jyiX5HnJnZasH04H_NFC-10" value="1" style="edgeLabel;html=1;align=center;verticalAlign=middle;resizable=0;points=[];" parent="jyiX5HnJnZasH04H_NFC-9" vertex="1" connectable="0">
          <mxGeometry x="0.4944" y="3" relative="1" as="geometry">
            <mxPoint x="13" as="offset" />
          </mxGeometry>
        </mxCell>
        <mxCell id="jyiX5HnJnZasH04H_NFC-29" value="type" style="edgeLabel;html=1;align=center;verticalAlign=middle;resizable=0;points=[];" parent="jyiX5HnJnZasH04H_NFC-9" vertex="1" connectable="0">
          <mxGeometry x="-0.2082" y="-6" relative="1" as="geometry">
            <mxPoint x="9" y="-5" as="offset" />
          </mxGeometry>
        </mxCell>
        <mxCell id="jyiX5HnJnZasH04H_NFC-11" value="" style="endArrow=classic;html=1;rounded=0;" parent="WIyWlLk6GJQsqaUBKTNV-1" source="jyiX5HnJnZasH04H_NFC-0" target="OQkiHe_5IFdhKGG0qFA8-10" edge="1">
          <mxGeometry width="50" height="50" relative="1" as="geometry">
            <mxPoint x="370" y="215" as="sourcePoint" />
            <mxPoint x="450" y="245" as="targetPoint" />
          </mxGeometry>
        </mxCell>
        <mxCell id="jyiX5HnJnZasH04H_NFC-12" value="1 *" style="edgeLabel;html=1;align=center;verticalAlign=middle;resizable=0;points=[];" parent="jyiX5HnJnZasH04H_NFC-11" vertex="1" connectable="0">
          <mxGeometry x="0.4944" y="3" relative="1" as="geometry">
            <mxPoint x="16" y="-12" as="offset" />
          </mxGeometry>
        </mxCell>
        <mxCell id="jyiX5HnJnZasH04H_NFC-27" value="designs" style="edgeLabel;html=1;align=center;verticalAlign=middle;resizable=0;points=[];" parent="jyiX5HnJnZasH04H_NFC-11" vertex="1" connectable="0">
          <mxGeometry x="-0.2541" y="2" relative="1" as="geometry">
            <mxPoint as="offset" />
          </mxGeometry>
        </mxCell>
        <mxCell id="jyiX5HnJnZasH04H_NFC-14" value="" style="endArrow=classic;html=1;rounded=0;" parent="WIyWlLk6GJQsqaUBKTNV-1" source="jyiX5HnJnZasH04H_NFC-3" target="jyiX5HnJnZasH04H_NFC-6" edge="1">
          <mxGeometry width="50" height="50" relative="1" as="geometry">
            <mxPoint x="380" y="225" as="sourcePoint" />
            <mxPoint x="460" y="255" as="targetPoint" />
          </mxGeometry>
        </mxCell>
        <mxCell id="jyiX5HnJnZasH04H_NFC-15" value="1 *" style="edgeLabel;html=1;align=center;verticalAlign=middle;resizable=0;points=[];" parent="jyiX5HnJnZasH04H_NFC-14" vertex="1" connectable="0">
          <mxGeometry x="0.4944" y="3" relative="1" as="geometry">
            <mxPoint x="-33" y="-13" as="offset" />
          </mxGeometry>
        </mxCell>
        <mxCell id="jyiX5HnJnZasH04H_NFC-34" value="formats" style="edgeLabel;html=1;align=center;verticalAlign=middle;resizable=0;points=[];" parent="jyiX5HnJnZasH04H_NFC-14" vertex="1" connectable="0">
          <mxGeometry x="-0.1047" y="-1" relative="1" as="geometry">
            <mxPoint as="offset" />
          </mxGeometry>
        </mxCell>
        <mxCell id="jyiX5HnJnZasH04H_NFC-16" value="" style="endArrow=classic;html=1;rounded=0;" parent="WIyWlLk6GJQsqaUBKTNV-1" source="jyiX5HnJnZasH04H_NFC-3" target="OQkiHe_5IFdhKGG0qFA8-19" edge="1">
          <mxGeometry width="50" height="50" relative="1" as="geometry">
            <mxPoint x="390" y="235" as="sourcePoint" />
            <mxPoint x="470" y="265" as="targetPoint" />
          </mxGeometry>
        </mxCell>
        <mxCell id="jyiX5HnJnZasH04H_NFC-17" value="0 *" style="edgeLabel;html=1;align=center;verticalAlign=middle;resizable=0;points=[];" parent="jyiX5HnJnZasH04H_NFC-16" vertex="1" connectable="0">
          <mxGeometry x="0.4944" y="3" relative="1" as="geometry">
            <mxPoint x="10" y="31" as="offset" />
          </mxGeometry>
        </mxCell>
        <mxCell id="jyiX5HnJnZasH04H_NFC-32" value="watermarks" style="edgeLabel;html=1;align=center;verticalAlign=middle;resizable=0;points=[];" parent="jyiX5HnJnZasH04H_NFC-16" vertex="1" connectable="0">
          <mxGeometry x="-0.1281" relative="1" as="geometry">
            <mxPoint as="offset" />
          </mxGeometry>
        </mxCell>
        <mxCell id="jyiX5HnJnZasH04H_NFC-18" value="" style="endArrow=classic;html=1;rounded=0;" parent="WIyWlLk6GJQsqaUBKTNV-1" source="jyiX5HnJnZasH04H_NFC-3" target="OQkiHe_5IFdhKGG0qFA8-16" edge="1">
          <mxGeometry width="50" height="50" relative="1" as="geometry">
            <mxPoint x="400" y="245" as="sourcePoint" />
            <mxPoint x="480" y="275" as="targetPoint" />
          </mxGeometry>
        </mxCell>
        <mxCell id="jyiX5HnJnZasH04H_NFC-19" value="0 1" style="edgeLabel;html=1;align=center;verticalAlign=middle;resizable=0;points=[];" parent="jyiX5HnJnZasH04H_NFC-18" vertex="1" connectable="0">
          <mxGeometry x="0.4944" y="3" relative="1" as="geometry">
            <mxPoint x="19" as="offset" />
          </mxGeometry>
        </mxCell>
        <mxCell id="jyiX5HnJnZasH04H_NFC-31" value="video_settings" style="edgeLabel;html=1;align=center;verticalAlign=middle;resizable=0;points=[];" parent="jyiX5HnJnZasH04H_NFC-18" vertex="1" connectable="0">
          <mxGeometry x="0.1813" y="-1" relative="1" as="geometry">
            <mxPoint x="-7" y="-8" as="offset" />
          </mxGeometry>
        </mxCell>
        <mxCell id="jyiX5HnJnZasH04H_NFC-20" value="" style="endArrow=classic;html=1;rounded=0;" parent="WIyWlLk6GJQsqaUBKTNV-1" source="jyiX5HnJnZasH04H_NFC-3" target="OQkiHe_5IFdhKGG0qFA8-13" edge="1">
          <mxGeometry width="50" height="50" relative="1" as="geometry">
            <mxPoint x="410" y="255" as="sourcePoint" />
            <mxPoint x="490" y="285" as="targetPoint" />
          </mxGeometry>
        </mxCell>
        <mxCell id="jyiX5HnJnZasH04H_NFC-21" value="1 *" style="edgeLabel;html=1;align=center;verticalAlign=middle;resizable=0;points=[];" parent="jyiX5HnJnZasH04H_NFC-20" vertex="1" connectable="0">
          <mxGeometry x="0.4944" y="3" relative="1" as="geometry">
            <mxPoint x="-33" as="offset" />
          </mxGeometry>
        </mxCell>
        <mxCell id="jyiX5HnJnZasH04H_NFC-33" value="templates" style="edgeLabel;html=1;align=center;verticalAlign=middle;resizable=0;points=[];" parent="jyiX5HnJnZasH04H_NFC-20" vertex="1" connectable="0">
          <mxGeometry x="-0.1704" y="2" relative="1" as="geometry">
            <mxPoint x="-6" y="7" as="offset" />
          </mxGeometry>
        </mxCell>
        <mxCell id="jyiX5HnJnZasH04H_NFC-22" value="" style="endArrow=classic;html=1;rounded=0;" parent="WIyWlLk6GJQsqaUBKTNV-1" source="OQkiHe_5IFdhKGG0qFA8-13" target="OQkiHe_5IFdhKGG0qFA8-19" edge="1">
          <mxGeometry width="50" height="50" relative="1" as="geometry">
            <mxPoint x="420" y="265" as="sourcePoint" />
            <mxPoint x="500" y="295" as="targetPoint" />
          </mxGeometry>
        </mxCell>
        <mxCell id="jyiX5HnJnZasH04H_NFC-23" value="0 1" style="edgeLabel;html=1;align=center;verticalAlign=middle;resizable=0;points=[];" parent="jyiX5HnJnZasH04H_NFC-22" vertex="1" connectable="0">
          <mxGeometry x="0.4944" y="3" relative="1" as="geometry">
            <mxPoint x="9" y="-11" as="offset" />
          </mxGeometry>
        </mxCell>
        <mxCell id="jyiX5HnJnZasH04H_NFC-59" value="watermark" style="edgeLabel;html=1;align=center;verticalAlign=middle;resizable=0;points=[];" parent="jyiX5HnJnZasH04H_NFC-22" vertex="1" connectable="0">
          <mxGeometry x="-0.1478" y="7" relative="1" as="geometry">
            <mxPoint x="-2" y="5" as="offset" />
          </mxGeometry>
        </mxCell>
        <mxCell id="jyiX5HnJnZasH04H_NFC-24" value="" style="endArrow=classic;html=1;rounded=0;" parent="WIyWlLk6GJQsqaUBKTNV-1" source="OQkiHe_5IFdhKGG0qFA8-16" target="OQkiHe_5IFdhKGG0qFA8-19" edge="1">
          <mxGeometry width="50" height="50" relative="1" as="geometry">
            <mxPoint x="430" y="275" as="sourcePoint" />
            <mxPoint x="510" y="305" as="targetPoint" />
          </mxGeometry>
        </mxCell>
        <mxCell id="jyiX5HnJnZasH04H_NFC-25" value="0 1" style="edgeLabel;html=1;align=center;verticalAlign=middle;resizable=0;points=[];" parent="jyiX5HnJnZasH04H_NFC-24" vertex="1" connectable="0">
          <mxGeometry x="0.4944" y="3" relative="1" as="geometry">
            <mxPoint x="-17" y="-7" as="offset" />
          </mxGeometry>
        </mxCell>
        <mxCell id="jyiX5HnJnZasH04H_NFC-61" value="watermark" style="edgeLabel;html=1;align=center;verticalAlign=middle;resizable=0;points=[];" parent="jyiX5HnJnZasH04H_NFC-24" vertex="1" connectable="0">
          <mxGeometry x="-0.1934" y="3" relative="1" as="geometry">
            <mxPoint x="-2" y="-1" as="offset" />
          </mxGeometry>
        </mxCell>
        <mxCell id="jyiX5HnJnZasH04H_NFC-42" value="TextBox" style="swimlane;fontStyle=0;align=center;verticalAlign=top;childLayout=stackLayout;horizontal=1;startSize=26;horizontalStack=0;resizeParent=1;resizeLast=0;collapsible=1;marginBottom=0;rounded=0;shadow=0;strokeWidth=1;" parent="WIyWlLk6GJQsqaUBKTNV-1" vertex="1">
          <mxGeometry x="300" y="790" width="160" height="86" as="geometry">
            <mxRectangle x="340" y="380" width="170" height="26" as="alternateBounds" />
          </mxGeometry>
        </mxCell>
        <mxCell id="jyiX5HnJnZasH04H_NFC-43" value="padding" style="text;align=left;verticalAlign=top;spacingLeft=4;spacingRight=4;overflow=hidden;rotatable=0;points=[[0,0.5],[1,0.5]];portConstraint=eastwest;" parent="jyiX5HnJnZasH04H_NFC-42" vertex="1">
          <mxGeometry y="26" width="160" height="26" as="geometry" />
        </mxCell>
        <mxCell id="jyiX5HnJnZasH04H_NFC-45" value="color" style="text;align=left;verticalAlign=top;spacingLeft=4;spacingRight=4;overflow=hidden;rotatable=0;points=[[0,0.5],[1,0.5]];portConstraint=eastwest;" parent="jyiX5HnJnZasH04H_NFC-42" vertex="1">
          <mxGeometry y="52" width="160" height="26" as="geometry" />
        </mxCell>
        <mxCell id="jyiX5HnJnZasH04H_NFC-44" value="" style="line;html=1;strokeWidth=1;align=left;verticalAlign=middle;spacingTop=-1;spacingLeft=3;spacingRight=3;rotatable=0;labelPosition=right;points=[];portConstraint=eastwest;" parent="jyiX5HnJnZasH04H_NFC-42" vertex="1">
          <mxGeometry y="78" width="160" height="8" as="geometry" />
        </mxCell>
        <mxCell id="jyiX5HnJnZasH04H_NFC-46" value="" style="endArrow=classic;html=1;rounded=0;" parent="WIyWlLk6GJQsqaUBKTNV-1" source="OQkiHe_5IFdhKGG0qFA8-19" target="jyiX5HnJnZasH04H_NFC-42" edge="1">
          <mxGeometry width="50" height="50" relative="1" as="geometry">
            <mxPoint x="373" y="540" as="sourcePoint" />
            <mxPoint x="480" y="612" as="targetPoint" />
          </mxGeometry>
        </mxCell>
        <mxCell id="jyiX5HnJnZasH04H_NFC-47" value="0 1" style="edgeLabel;html=1;align=center;verticalAlign=middle;resizable=0;points=[];" parent="jyiX5HnJnZasH04H_NFC-46" vertex="1" connectable="0">
          <mxGeometry x="0.4944" y="3" relative="1" as="geometry">
            <mxPoint x="9" y="4" as="offset" />
          </mxGeometry>
        </mxCell>
        <mxCell id="jyiX5HnJnZasH04H_NFC-60" value="textbox" style="edgeLabel;html=1;align=center;verticalAlign=middle;resizable=0;points=[];" parent="jyiX5HnJnZasH04H_NFC-46" vertex="1" connectable="0">
          <mxGeometry x="-0.3761" relative="1" as="geometry">
            <mxPoint x="-9" y="8" as="offset" />
          </mxGeometry>
        </mxCell>
        <mxCell id="jyiX5HnJnZasH04H_NFC-48" value="TemplateElement" style="swimlane;fontStyle=0;align=center;verticalAlign=top;childLayout=stackLayout;horizontal=1;startSize=26;horizontalStack=0;resizeParent=1;resizeLast=0;collapsible=1;marginBottom=0;rounded=0;shadow=0;strokeWidth=1;" parent="WIyWlLk6GJQsqaUBKTNV-1" vertex="1">
          <mxGeometry x="50" y="585" width="160" height="78" as="geometry">
            <mxRectangle x="340" y="380" width="170" height="26" as="alternateBounds" />
          </mxGeometry>
        </mxCell>
        <mxCell id="jyiX5HnJnZasH04H_NFC-49" value="position" style="text;align=left;verticalAlign=top;spacingLeft=4;spacingRight=4;overflow=hidden;rotatable=0;points=[[0,0.5],[1,0.5]];portConstraint=eastwest;" parent="jyiX5HnJnZasH04H_NFC-48" vertex="1">
          <mxGeometry y="26" width="160" height="22" as="geometry" />
        </mxCell>
        <mxCell id="jyiX5HnJnZasH04H_NFC-51" value="size" style="text;align=left;verticalAlign=top;spacingLeft=4;spacingRight=4;overflow=hidden;rotatable=0;points=[[0,0.5],[1,0.5]];portConstraint=eastwest;" parent="jyiX5HnJnZasH04H_NFC-48" vertex="1">
          <mxGeometry y="48" width="160" height="22" as="geometry" />
        </mxCell>
        <mxCell id="jyiX5HnJnZasH04H_NFC-50" value="" style="line;html=1;strokeWidth=1;align=left;verticalAlign=middle;spacingTop=-1;spacingLeft=3;spacingRight=3;rotatable=0;labelPosition=right;points=[];portConstraint=eastwest;" parent="jyiX5HnJnZasH04H_NFC-48" vertex="1">
          <mxGeometry y="70" width="160" height="8" as="geometry" />
        </mxCell>
        <mxCell id="jyiX5HnJnZasH04H_NFC-52" value="" style="endArrow=classic;html=1;rounded=0;" parent="WIyWlLk6GJQsqaUBKTNV-1" source="OQkiHe_5IFdhKGG0qFA8-13" target="jyiX5HnJnZasH04H_NFC-48" edge="1">
          <mxGeometry width="50" height="50" relative="1" as="geometry">
            <mxPoint x="500" y="370" as="sourcePoint" />
            <mxPoint x="367" y="470" as="targetPoint" />
          </mxGeometry>
        </mxCell>
        <mxCell id="jyiX5HnJnZasH04H_NFC-53" value="1 *" style="edgeLabel;html=1;align=center;verticalAlign=middle;resizable=0;points=[];" parent="jyiX5HnJnZasH04H_NFC-52" vertex="1" connectable="0">
          <mxGeometry x="0.4944" y="3" relative="1" as="geometry">
            <mxPoint x="-33" as="offset" />
          </mxGeometry>
        </mxCell>
        <mxCell id="jyiX5HnJnZasH04H_NFC-54" value="elements" style="edgeLabel;html=1;align=center;verticalAlign=middle;resizable=0;points=[];" parent="jyiX5HnJnZasH04H_NFC-52" vertex="1" connectable="0">
          <mxGeometry x="-0.1704" y="2" relative="1" as="geometry">
            <mxPoint x="-6" y="7" as="offset" />
          </mxGeometry>
        </mxCell>
      </root>
    </mxGraphModel>
  </diagram>
</mxfile>
